<svg width="116" height="33" viewBox="0 0 116 33" fill="none" xmlns="http://www.w3.org/2000/svg">
<path d="M21.8639 2.10531C21.7019 1.98385 20.9529 1.61608 20.5986 1.44737L13.4625 8.53289L10.5271 7.21701L0 23.1594V25.0826L10.5271 13.4421L14.7784 15.9727C17.2077 11.4008 22.0258 2.22678 21.8639 2.10531Z" fill="#E30613"/>
<path d="M21.6376 1.98284C24.4543 3.65463 26.4188 6.41 26.4188 9.74755C26.4188 15.3147 23.4834 17.9465 19.7888 19.2118C20.0538 19.678 20.5208 20.5128 21.0995 21.5512L14.4849 29.3832L9.8185 20.7807V31.5102H0V24.9589L10.8307 11.7214L14.5253 14.6062L21.6376 1.98284ZM21.6387 22.5202C23.2464 25.4106 25.3946 29.2911 26.6213 31.5102H15.6387L14.9826 30.3006L21.6387 22.5202ZM15.1832 0.232716C17.0994 0.232716 18.982 0.668246 20.6421 1.4538L13.7661 10.5573L10.8307 8.43167L0 23.6594V12.1417L8.89594 0.232716H15.1832ZM0 11.0139V0.232716H7.7911L0 11.0139Z" fill="white"/>
<path d="M108.383 0.602657C110.611 0.602657 112.332 1.11667 113.547 2.14469C114.762 3.15714 115.369 4.59793 115.369 6.46707C115.369 8.44524 114.762 9.98728 113.547 11.0932C112.332 12.1835 110.611 12.7287 108.383 12.7287H105.883V16.981H100.463V0.602657H108.383ZM108.383 8.61658C108.975 8.61658 109.427 8.44524 109.738 8.10256C110.065 7.74431 110.229 7.25367 110.229 6.63062C110.229 6.02315 110.065 5.55587 109.738 5.22877C109.427 4.88609 108.975 4.71476 108.383 4.71476H105.883V8.61658H108.383ZM107.005 10.7894H112.238L116 16.981H109.879L107.005 10.7894Z" fill="white"/>
<path d="M84.1031 0.602657H97.9581V4.71476H89.5236V6.72408H94.9879V10.8362H89.5236V12.8689H98.1683V16.981H84.1031V0.602657Z" fill="white"/>
<path d="M80.243 6.28016C79.6978 5.95306 79.0748 5.64154 78.3739 5.34559C77.6729 5.04964 76.9876 4.80821 76.3178 4.6213C75.6636 4.43439 75.0951 4.34093 74.6122 4.34093C74.3163 4.34093 74.0749 4.39545 73.8879 4.50448C73.701 4.61351 73.6076 4.80043 73.6076 5.06522C73.6076 5.37674 73.7556 5.63375 74.0515 5.83624C74.363 6.02315 74.768 6.1867 75.2664 6.32689C75.7804 6.46707 76.3412 6.62283 76.9487 6.79417C77.5561 6.94993 78.1558 7.15242 78.7477 7.40164C79.3552 7.63528 79.9081 7.93902 80.4066 8.31284C80.9206 8.68667 81.3256 9.16953 81.6215 9.76142C81.933 10.3533 82.0888 11.0776 82.0888 11.9343C82.0888 13.1648 81.7695 14.1773 81.1309 14.9716C80.4922 15.7504 79.6511 16.3346 78.6075 16.724C77.5639 17.0978 76.4269 17.2847 75.1963 17.2847C74.2462 17.2847 73.2727 17.1835 72.2758 16.981C71.2945 16.7629 70.3522 16.4592 69.4488 16.0698C68.5453 15.6648 67.7276 15.1819 66.9955 14.6212L69.0048 10.5324C69.5656 11.0153 70.2276 11.4514 70.9908 11.8408C71.754 12.2302 72.5173 12.5418 73.2805 12.7754C74.0437 13.009 74.6979 13.1259 75.2431 13.1259C75.6481 13.1259 75.9674 13.0558 76.201 12.9156C76.4346 12.7598 76.5515 12.5262 76.5515 12.2147C76.5515 11.9031 76.3957 11.6539 76.0842 11.467C75.7882 11.2645 75.3833 11.0932 74.8692 10.953C74.3708 10.8128 73.8179 10.6726 73.2104 10.5324C72.6029 10.3767 71.9955 10.1898 71.388 9.9717C70.7961 9.73806 70.2431 9.44211 69.7291 9.08386C69.2307 8.71003 68.8257 8.24275 68.5142 7.68201C68.2182 7.12127 68.0703 6.42034 68.0703 5.57923C68.0703 4.47333 68.3584 3.5154 68.9347 2.70544C69.5111 1.89548 70.321 1.27243 71.3646 0.8363C72.4238 0.400168 73.6621 0.182102 75.0795 0.182102C76.3723 0.182102 77.6496 0.361228 78.9113 0.719479C80.1885 1.07773 81.2866 1.5528 82.2056 2.14469L80.243 6.28016Z" fill="white"/>
<path d="M53.5742 0.602657H59.1349L65.7937 16.981H60.0228L56.191 5.99979L52.2191 16.981H46.6584L53.5742 0.602657ZM51.3313 10.7894H60.7237V14.6679H51.3313V10.7894Z" fill="white"/>
<path d="M32.5934 0.602657H38.0139V12.4717H44.8362V16.981H32.5934V0.602657Z" fill="white"/>
<path d="M116 21.8435L116 22.4509L32.5934 22.4509L32.5934 21.8435L116 21.8435Z" fill="#E30613"/>
<path d="M115.654 28.0113C115.503 27.9158 115.353 27.8402 115.206 27.7845C115.059 27.7288 114.92 27.689 114.788 27.6651C114.657 27.6412 114.538 27.6293 114.43 27.6293C114.223 27.6293 114.058 27.6691 113.935 27.7487C113.811 27.8283 113.75 27.9437 113.75 28.0949C113.75 28.2302 113.79 28.3416 113.869 28.4291C113.953 28.5127 114.06 28.5823 114.191 28.638C114.327 28.6898 114.474 28.7395 114.633 28.7872C114.796 28.835 114.957 28.8887 115.117 28.9484C115.276 29.0041 115.423 29.0777 115.558 29.1693C115.694 29.2608 115.801 29.3782 115.881 29.5214C115.96 29.6607 116 29.8378 116 30.0526C116 30.2993 115.932 30.5142 115.797 30.6973C115.662 30.8763 115.475 31.0156 115.236 31.1151C115.001 31.2145 114.731 31.2643 114.424 31.2643C114.205 31.2643 113.993 31.2364 113.786 31.1807C113.579 31.121 113.384 31.0414 113.201 30.942C113.022 30.8425 112.86 30.7271 112.717 30.5958L113.022 30.0168C113.165 30.1481 113.316 30.2595 113.475 30.3511C113.638 30.4426 113.802 30.5122 113.965 30.56C114.132 30.6077 114.289 30.6316 114.436 30.6316C114.683 30.6316 114.874 30.5838 115.009 30.4883C115.148 30.3928 115.218 30.2595 115.218 30.0884C115.218 29.9492 115.176 29.8378 115.093 29.7542C115.013 29.6666 114.906 29.595 114.77 29.5393C114.639 29.4836 114.492 29.4339 114.329 29.3901C114.17 29.3463 114.008 29.2966 113.845 29.2409C113.686 29.1812 113.539 29.1076 113.404 29.02C113.272 28.9325 113.165 28.8191 113.081 28.6798C113.002 28.5405 112.962 28.3635 112.962 28.1486C112.962 27.9138 113.026 27.7109 113.153 27.5398C113.28 27.3647 113.457 27.2294 113.684 27.1339C113.915 27.0384 114.182 26.9907 114.484 26.9907C114.755 26.9907 115.017 27.0304 115.272 27.11C115.526 27.1896 115.751 27.2931 115.946 27.4204L115.654 28.0113Z" fill="white"/>
<path d="M103.404 27.0444H106.389V27.6472H104.109V28.8231H106.15V29.4199H104.109V30.6197H106.46V31.2225H103.404V27.0444Z" fill="white"/>
<path d="M94.6508 27.0026C94.9612 27.0026 95.2497 27.0563 95.5163 27.1637C95.7869 27.2712 96.0217 27.4224 96.2206 27.6174C96.4236 27.8124 96.5807 28.0392 96.6922 28.2978C96.8076 28.5525 96.8653 28.829 96.8653 29.1275C96.8653 29.4259 96.8076 29.7064 96.6922 29.9691C96.5807 30.2277 96.4236 30.4545 96.2206 30.6495C96.0217 30.8445 95.7869 30.9977 95.5163 31.1091C95.2497 31.2165 94.9612 31.2703 94.6508 31.2703C94.3405 31.2703 94.05 31.2165 93.7794 31.1091C93.5128 30.9977 93.278 30.8445 93.0751 30.6495C92.8761 30.4545 92.719 30.2277 92.6036 29.9691C92.4921 29.7064 92.4364 29.4259 92.4364 29.1275C92.4364 28.829 92.4921 28.5505 92.6036 28.2918C92.719 28.0332 92.8761 27.8084 93.0751 27.6174C93.278 27.4224 93.5128 27.2712 93.7794 27.1637C94.05 27.0563 94.3405 27.0026 94.6508 27.0026ZM94.6568 27.5995C94.4499 27.5995 94.2549 27.6393 94.0719 27.7188C93.8928 27.7944 93.7336 27.9019 93.5944 28.0412C93.4551 28.1804 93.3457 28.3436 93.2661 28.5306C93.1905 28.7136 93.1527 28.9126 93.1527 29.1275C93.1527 29.3423 93.1925 29.5433 93.2721 29.7303C93.3516 29.9173 93.4611 30.0825 93.6003 30.2257C93.7396 30.365 93.8988 30.4744 94.0778 30.554C94.2609 30.6336 94.4539 30.6734 94.6568 30.6734C94.8597 30.6734 95.0507 30.6336 95.2298 30.554C95.4129 30.4744 95.572 30.365 95.7073 30.2257C95.8426 30.0825 95.948 29.9173 96.0237 29.7303C96.1032 29.5433 96.143 29.3423 96.143 29.1275C96.143 28.9126 96.1032 28.7136 96.0237 28.5306C95.948 28.3436 95.8426 28.1804 95.7073 28.0412C95.572 27.9019 95.4129 27.7944 95.2298 27.7188C95.0507 27.6393 94.8597 27.5995 94.6568 27.5995ZM95.6118 25.9163C95.6118 26.0476 95.5959 26.1729 95.5641 26.2923C95.5362 26.4117 95.4865 26.5092 95.4148 26.5848C95.3432 26.6564 95.2417 26.6922 95.1104 26.6922C95.0269 26.6922 94.9453 26.6783 94.8657 26.6504C94.7901 26.6186 94.7185 26.5828 94.6508 26.543C94.5832 26.5032 94.5215 26.4694 94.4658 26.4415C94.4101 26.4097 94.3604 26.3938 94.3166 26.3938C94.2489 26.3938 94.2052 26.4216 94.1853 26.4773C94.1654 26.5291 94.1554 26.5927 94.1554 26.6683H93.6899C93.6899 26.533 93.7038 26.4077 93.7317 26.2923C93.7635 26.1729 93.8152 26.0774 93.8868 26.0058C93.9624 25.9302 94.0639 25.8924 94.1912 25.8924C94.2748 25.8924 94.3544 25.9083 94.43 25.9402C94.5096 25.968 94.5832 26.0018 94.6508 26.0416C94.7185 26.0814 94.7802 26.1172 94.8359 26.1491C94.8916 26.1769 94.9413 26.1908 94.9851 26.1908C95.0527 26.1908 95.0965 26.165 95.1164 26.1132C95.1363 26.0575 95.1463 25.9919 95.1463 25.9163H95.6118Z" fill="white"/>
<path d="M85.9447 28.1307C85.7935 27.9636 85.6144 27.8323 85.4075 27.7368C85.2006 27.6413 84.9917 27.5935 84.7808 27.5935C84.5739 27.5935 84.3789 27.6333 84.1959 27.7129C84.0168 27.7885 83.8576 27.8959 83.7184 28.0352C83.5831 28.1745 83.4776 28.3376 83.402 28.5246C83.3264 28.7077 83.2886 28.9066 83.2886 29.1215C83.2886 29.3324 83.3264 29.5314 83.402 29.7184C83.4776 29.9014 83.5831 30.0626 83.7184 30.2018C83.8576 30.3411 84.0168 30.4505 84.1959 30.5301C84.3789 30.6097 84.5739 30.6495 84.7808 30.6495C84.9917 30.6495 85.1986 30.6057 85.4016 30.5182C85.6045 30.4267 85.7856 30.3033 85.9447 30.1481L86.3625 30.5838C86.2233 30.7231 86.0641 30.8445 85.885 30.9479C85.7099 31.0514 85.5249 31.131 85.3299 31.1867C85.1389 31.2424 84.944 31.2703 84.745 31.2703C84.4386 31.2703 84.1541 31.2165 83.8915 31.1091C83.6288 30.9977 83.398 30.8445 83.1991 30.6495C83.0041 30.4545 82.8509 30.2277 82.7395 29.9691C82.6281 29.7064 82.5724 29.4259 82.5724 29.1275C82.5724 28.829 82.6281 28.5525 82.7395 28.2978C82.8509 28.0392 83.0061 27.8124 83.2051 27.6174C83.408 27.4224 83.6408 27.2712 83.9034 27.1638C84.17 27.0563 84.4585 27.0026 84.7689 27.0026C84.9678 27.0026 85.1628 27.0285 85.3538 27.0802C85.5448 27.1319 85.7259 27.2055 85.897 27.301C86.0681 27.3965 86.2213 27.5119 86.3566 27.6472L85.9447 28.1307ZM84.5122 31.1748L84.9599 31.2225L84.8465 31.5269C85.0216 31.5548 85.1449 31.6125 85.2165 31.7C85.2921 31.7915 85.3299 31.891 85.3299 31.9984C85.3299 32.1138 85.2981 32.2093 85.2344 32.2849C85.1747 32.3645 85.0932 32.4242 84.9897 32.464C84.8863 32.5038 84.7689 32.5237 84.6376 32.5237C84.5381 32.5237 84.4366 32.5118 84.3332 32.4879C84.2337 32.464 84.1422 32.4342 84.0586 32.3983L84.2018 32.0104C84.2536 32.0303 84.3113 32.0462 84.3749 32.0581C84.4386 32.074 84.4983 32.082 84.554 32.082C84.6336 32.082 84.6933 32.0661 84.7331 32.0343C84.7768 32.0024 84.7987 31.9686 84.7987 31.9328C84.7987 31.889 84.7748 31.8532 84.7271 31.8253C84.6793 31.7975 84.6057 31.7836 84.5062 31.7836C84.4824 31.7836 84.4486 31.7836 84.4048 31.7836C84.361 31.7836 84.3312 31.7836 84.3152 31.7836L84.5122 31.1748Z" fill="white"/>
<path d="M74.1283 27.0444H74.8506L76.677 31.2225H75.9249L74.4686 27.7547L73.0182 31.2225H72.284L74.1283 27.0444ZM73.2032 29.6587H75.7041V30.2556H73.2032V29.6587Z" fill="white"/>
<path d="M62.6767 27.0444H63.4347L64.724 30.4824L66.0252 27.0444H66.7593L65.0702 31.2225H64.342L62.6767 27.0444Z" fill="white"/>
<path d="M54.6042 27.0444H55.3264L57.1529 31.2225H56.4008L54.9444 27.7547L53.494 31.2225H52.7599L54.6042 27.0444ZM53.6791 29.6587H56.18V30.2556H53.6791V29.6587Z" fill="white"/>
<path d="M44.8951 27.0444C45.4323 27.0444 45.8461 27.1697 46.1366 27.4204C46.4311 27.6671 46.5783 28.0153 46.5783 28.4649C46.5783 28.9345 46.4311 29.3006 46.1366 29.5632C45.8461 29.8218 45.4323 29.9512 44.8951 29.9512H43.9043V31.2225H43.2V27.0444H44.8951ZM44.8951 29.3483C45.2174 29.3483 45.4661 29.2787 45.6412 29.1394C45.8203 28.9962 45.9098 28.7773 45.9098 28.4829C45.9098 28.2003 45.8203 27.9914 45.6412 27.8561C45.4661 27.7169 45.2174 27.6472 44.8951 27.6472H43.9043V29.3483H44.8951ZM44.919 29.6766H45.6114L46.6499 31.2225H45.8501L44.919 29.6766Z" fill="white"/>
<path d="M36.0373 28.077C35.8782 27.9258 35.6911 27.8084 35.4763 27.7248C35.2654 27.6373 35.0505 27.5935 34.8316 27.5935C34.6168 27.5935 34.4178 27.6333 34.2348 27.7129C34.0517 27.7925 33.8906 27.9019 33.7513 28.0412C33.612 28.1804 33.5026 28.3436 33.423 28.5306C33.3474 28.7136 33.3096 28.9126 33.3096 29.1275C33.3096 29.3423 33.3474 29.5433 33.423 29.7303C33.5026 29.9173 33.612 30.0825 33.7513 30.2257C33.8906 30.365 34.0517 30.4744 34.2348 30.554C34.4218 30.6336 34.6227 30.6734 34.8376 30.6734C35.0326 30.6734 35.2335 30.6336 35.4405 30.554C35.6514 30.4744 35.8404 30.367 36.0075 30.2317L36.4134 30.7211C36.2741 30.8286 36.1129 30.9241 35.9299 31.0076C35.7508 31.0912 35.5638 31.1568 35.3688 31.2046C35.1739 31.2484 34.9809 31.2703 34.7899 31.2703C34.4795 31.2703 34.191 31.2165 33.9244 31.1091C33.6618 30.9977 33.429 30.8445 33.226 30.6495C33.0271 30.4545 32.8719 30.2277 32.7605 29.9691C32.6491 29.7064 32.5934 29.4259 32.5934 29.1275C32.5934 28.829 32.6491 28.5525 32.7605 28.2978C32.8759 28.0392 33.035 27.8124 33.238 27.6174C33.4409 27.4224 33.6777 27.2712 33.9483 27.1638C34.2228 27.0563 34.5173 27.0026 34.8316 27.0026C35.0306 27.0026 35.2256 27.0265 35.4166 27.0742C35.6116 27.122 35.7966 27.1896 35.9717 27.2772C36.1468 27.3647 36.3019 27.4701 36.4372 27.5935L36.0373 28.077ZM35.7986 29.1812H36.4134V30.7211H35.7986V29.1812Z" fill="white"/>
</svg>
