<svg width="219" height="102" viewBox="0 0 219 102" fill="none" xmlns="http://www.w3.org/2000/svg">
<rect x="0.215187" y="0.82373" width="218.751" height="100.741" rx="13.4321" fill="url(#paint0_linear_0_79)"/>
<rect width="71.9576" height="71.9576" rx="5.75661" transform="matrix(1 0 0 -1 13.6473 87.1731)" fill="#E30613"/>
<path d="M46.8739 57.8505C44.8304 58.1485 42.6062 58.8805 40.6361 59.5239C40.6361 59.5239 46.0977 66.4762 46.0977 66.4762C46.7531 67.3072 47.8668 67.6501 48.8791 67.3244L50.6309 66.7606C51.8698 66.4007 52.3689 64.7493 51.5453 63.7612C51.5454 63.7612 46.8739 57.8505 46.8739 57.8505Z" fill="white"/>
<path d="M61.5266 40.9187L64.4209 49.9127C67.9361 47.0303 66.0608 41.2092 61.5266 40.9187Z" fill="white"/>
<path d="M55.4433 34.4874C54.2309 34.8775 53.511 36.091 53.7112 37.3157L53.4971 37.565C50.3835 41.1518 46.4851 43.9626 42.1145 45.7632L45.6593 56.7787C50.4597 55.8078 55.4157 56.0055 60.1718 57.3918C60.7174 58.5054 62.0199 59.0814 63.2322 58.6913C64.5718 58.2602 65.3063 56.8216 64.8778 55.49L58.647 36.1281C58.2534 34.8184 56.7392 34.0418 55.4433 34.4874Z" fill="white"/>
<path d="M44.412 57.0596L40.9275 46.2318C40.5636 46.3689 35.6212 47.9728 35.6212 47.9728C28.5775 50.5291 31.8767 60.7721 39.0862 58.7401C39.9223 58.4811 43.6302 57.2615 44.412 57.0596Z" fill="white"/>
<defs>
<linearGradient id="paint0_linear_0_79" x1="0.215187" y1="51.6738" x2="182.265" y2="51.6738" gradientUnits="userSpaceOnUse">
<stop stop-color="#E30613" stop-opacity="0.5"/>
<stop offset="1" stop-color="#E30613" stop-opacity="0"/>
</linearGradient>
</defs>
</svg>
