<svg width="220" height="101" viewBox="0 0 220 101" fill="none" xmlns="http://www.w3.org/2000/svg">
<rect x="0.349854" y="0.214966" width="218.751" height="100.741" rx="13.4321" fill="url(#paint0_linear_0_65)"/>
<rect width="71.9576" height="71.9576" rx="5.75661" transform="matrix(1 0 0 -1 13.7819 86.5642)" fill="#E30613"/>
<path d="M49.6506 41.3827C51.7477 41.3827 53.4463 39.6842 53.4463 37.5871C53.4463 36.8754 53.247 36.2017 52.9054 35.6324L49.6506 29.9958L46.3959 35.6324C46.0543 36.2017 45.855 36.8754 45.855 37.5871C45.855 39.6842 47.5536 41.3827 49.6506 41.3827Z" fill="white"/>
<path d="M61.0374 47.0761H51.5483V43.2804H47.7526V47.0761H38.2636C35.1227 47.0761 32.5702 49.6286 32.5702 52.7695V55.6921C32.5702 57.7417 34.2402 59.4118 36.2899 59.4118C37.2862 59.4118 38.2161 59.0228 38.9184 58.3205L42.9797 54.2687L47.0315 58.311C48.4359 59.7154 50.8841 59.7154 52.2885 58.311L56.3497 54.2687L60.4016 58.311C61.1038 59.0132 62.0338 59.4023 63.0301 59.4023C65.0798 59.4023 66.7498 57.7322 66.7498 55.6826V52.7695C66.7309 49.6286 64.1783 47.0761 61.0374 47.0761Z" fill="white"/>
<path d="M58.371 60.3322L56.3309 58.2921L54.2812 60.3322C51.8046 62.8089 47.4776 62.8089 45.0009 60.3322L42.9607 58.2921L40.9111 60.3322C39.687 61.5753 38.0454 62.2585 36.2899 62.2585C34.9139 62.2585 33.6329 61.822 32.5702 61.0913V69.8498C32.5702 70.8936 33.4242 71.7476 34.468 71.7476H64.833C65.8767 71.7476 66.7308 70.8936 66.7308 69.8498V61.0914C65.668 61.822 64.3964 62.2586 63.0111 62.2586C61.2556 62.2586 59.614 61.5754 58.371 60.3322Z" fill="white"/>
<defs>
<linearGradient id="paint0_linear_0_65" x1="0.349854" y1="51.065" x2="182.4" y2="51.065" gradientUnits="userSpaceOnUse">
<stop stop-color="#E30613" stop-opacity="0.5"/>
<stop offset="1" stop-color="#E30613" stop-opacity="0"/>
</linearGradient>
</defs>
</svg>
