<svg width="22" height="17" viewBox="0 0 22 17" fill="none" xmlns="http://www.w3.org/2000/svg">
<path d="M18.1318 3.22472H17.126L17.1254 3.22507C17.1173 2.33441 17.0651 1.44371 16.9689 0.57372L16.9055 0H0.221676L0.158211 0.573677C0.0532384 1.52303 0 2.49722 0 3.46926C0 6.27173 0.334641 8.91298 0.967658 11.1074C1.29723 12.2499 1.70926 13.2843 2.19227 14.1818C2.699 15.1234 3.28944 15.9244 3.94707 16.5625L4.13459 16.7444H12.9925L13.18 16.5625C13.8377 15.9244 14.4281 15.1234 14.9349 14.1818C15.4179 13.2842 15.8298 12.2499 16.1595 11.1074C16.1734 11.059 16.1871 11.0101 16.2008 10.9612H18.1318C20.2647 10.9612 22 9.22588 22 7.09295C22 4.95998 20.2647 3.22472 18.1318 3.22472ZM18.1318 8.38305H16.7568C16.8883 7.55637 16.9858 6.69295 17.0475 5.80286H18.1318C18.8443 5.80286 19.4219 6.38044 19.4219 7.09295C19.4219 7.80546 18.8443 8.38305 18.1318 8.38305Z" fill="white"/>
</svg>
