<svg width="220" height="101" viewBox="0 0 220 101" fill="none" xmlns="http://www.w3.org/2000/svg">
<rect x="0.782471" y="0.214966" width="218.751" height="100.741" rx="13.4321" fill="url(#paint0_linear_0_56)"/>
<rect width="71.9576" height="71.9576" rx="5.75661" transform="matrix(1 0 0 -1 14.2146 86.5642)" fill="#E30613"/>
<path fill-rule="evenodd" clip-rule="evenodd" d="M45.4055 34.9459C45.6271 34.7244 45.9275 34.6 46.2407 34.6H53.3276C53.6409 34.6 53.9413 34.7244 54.1628 34.9459L56.5251 37.3082C56.9572 37.7402 56.9884 38.4303 56.5973 38.8996L52.5343 43.7753C57.8346 45.0184 61.7813 49.7762 61.7813 55.4557C61.7813 62.0816 56.41 67.4528 49.7842 67.4528C43.1584 67.4528 37.7871 62.0816 37.7871 55.4557C37.7871 49.7762 41.7337 45.0184 47.0341 43.7753L42.971 38.8996C42.58 38.4303 42.6113 37.7402 43.0432 37.3082L45.4055 34.9459ZM41.3306 55.4557C41.3306 50.7869 45.1154 47.0021 49.7842 47.0021C54.453 47.0021 58.2378 50.7869 58.2378 55.4557C58.2378 60.1245 54.453 63.9093 49.7842 63.9093C45.1154 63.9093 41.3306 60.1245 41.3306 55.4557Z" fill="white"/>
<defs>
<linearGradient id="paint0_linear_0_56" x1="0.782471" y1="51.065" x2="182.833" y2="51.065" gradientUnits="userSpaceOnUse">
<stop stop-color="#E30613" stop-opacity="0.5"/>
<stop offset="1" stop-color="#E30613" stop-opacity="0"/>
</linearGradient>
</defs>
</svg>
