<svg width="20" height="20" viewBox="0 0 20 20" fill="none" xmlns="http://www.w3.org/2000/svg">
<path d="M5.78033 8.4151C2.59303 8.4151 0 11.0082 0 14.1955C0 17.3828 2.59303 19.9758 5.78033 19.9758C8.96763 19.9758 11.5607 17.3828 11.5607 14.1955C11.5607 11.0082 8.96763 8.4151 5.78033 8.4151ZM6.9614 16.6391L5.11169 18.1919L3.83234 16.1435L1.78389 14.8641L3.33674 13.0144L3.92047 10.6708L6.15953 11.5761L8.56874 11.4071L8.39973 13.8163L9.305 16.0554L6.9614 16.6391Z" fill="white"/>
<path d="M16.2766 -0.00390625C14.2241 -0.00390625 12.5543 1.66593 12.5543 3.7184C12.5543 4.18803 12.6424 4.63726 12.8019 5.05138C12.5009 5.12786 12.2248 5.28399 11.9995 5.50933L11.4245 6.08426C11.1011 6.40772 10.9314 6.82747 10.915 7.25209C10.5097 7.28076 10.1125 7.44919 9.80338 7.75836L9.33578 8.22595C9.67503 8.42879 9.99563 8.6596 10.2944 8.91537L10.6274 8.58234C10.8546 8.35516 11.2242 8.3552 11.4514 8.58238C11.5615 8.69241 11.6221 8.83873 11.6221 8.99435C11.6221 9.15 11.5615 9.29629 11.4514 9.40636L11.1135 9.74423C11.3662 10.0465 11.5938 10.3704 11.7929 10.7129L12.2754 10.2304C12.5987 9.90715 12.7683 9.48772 12.7849 9.06341C13.2049 9.03403 13.5959 8.85693 13.8966 8.55628L14.4715 7.98131C14.6993 7.75351 14.8506 7.47782 14.9261 7.18643C15.345 7.35025 15.8004 7.44076 16.2767 7.44076C18.3292 7.44076 19.999 5.77096 19.999 3.71844C19.999 1.66593 18.3291 -0.00390625 16.2766 -0.00390625ZM13.6475 7.15733L13.0725 7.7323C12.9624 7.84234 12.8161 7.90296 12.6605 7.90296C12.5049 7.90296 12.3586 7.84237 12.2485 7.7323C12.0214 7.50513 12.0214 7.13546 12.2485 6.90828L12.8235 6.33335C12.9371 6.21976 13.0863 6.16297 13.2355 6.16297C13.3847 6.16297 13.5339 6.21976 13.6475 6.33335C13.8747 6.56049 13.8747 6.93016 13.6475 7.15733ZM16.2766 6.27542C15.7786 6.27542 15.3137 6.1318 14.9203 5.88451L15.6355 5.16931L14.8115 4.34533L14.0994 5.0574C13.8589 4.66769 13.7197 4.20908 13.7197 3.71844C13.7197 2.30852 14.8667 1.16146 16.2766 1.16146C17.6866 1.16146 18.8336 2.30852 18.8336 3.71844C18.8336 5.12837 17.6866 6.27542 16.2766 6.27542Z" fill="white"/>
<path d="M7.30777 12.668L5.97174 12.7617L4.73009 12.2597L4.40636 13.5593L3.54523 14.5851L4.68122 15.2946L5.39064 16.4305L6.41641 15.5694L7.71603 15.2457L7.21403 14.004L7.30777 12.668Z" fill="white"/>
</svg>
