<svg width="22" height="21" viewBox="0 0 22 21" fill="none" xmlns="http://www.w3.org/2000/svg">
<path d="M7.60729 11.4426C7.72429 10.9356 7.88029 10.5846 8.03628 10.3116C8.15328 10.0776 8.23128 9.84365 8.34827 9.53166C8.46527 9.10267 8.54327 8.67368 8.54327 8.20569C7.68529 8.36168 6.98331 9.41466 6.98331 10.6236C6.98331 11.2866 7.1783 11.8716 7.49029 12.3396C7.49029 12.0276 7.52929 11.7546 7.60729 11.4426Z" fill="white"/>
<path d="M9.79125 9.96069C9.67425 10.3897 9.51825 10.6627 9.40126 10.9357C9.28426 11.2087 9.16726 11.4427 9.08926 11.8326C8.97227 12.2226 8.93327 12.6516 8.97227 13.0806C9.83025 12.9246 10.5322 11.8716 10.5322 10.6627C10.5322 9.99969 10.3372 9.37571 10.0252 8.94672C9.98624 9.25871 9.90824 9.6097 9.79125 9.96069Z" fill="white"/>
<path d="M19.97 4.57878C19.112 3.99379 18.098 3.7598 17.0841 3.9158C17.0841 3.7598 17.1231 3.6428 17.1231 3.48681C17.2011 2.70682 17.3181 1.92684 17.3961 1.10786C17.4351 0.678872 17.0061 0.327881 16.6161 0.327881C12.0142 0.327881 7.3733 0.327881 2.77141 0.327881C2.10843 0.327881 1.44544 0.327881 0.782457 0.327881C0.392466 0.327881 -0.0365237 0.678872 0.00247542 1.10786C0.275469 3.25281 0.509463 5.39776 0.782457 7.54271C0.899454 8.28369 1.01645 9.06367 1.09445 9.84365H2.65441H5.46235C5.77434 8.0107 7.13931 6.60673 8.73827 6.60673C10.3372 6.60673 11.7412 8.0107 12.0142 9.84365H14.8221H16.3821C16.5381 8.40069 16.7331 6.99672 16.8891 5.55376C17.6301 5.28076 18.41 5.39776 19.073 5.86575C19.814 6.41174 20.204 7.26972 20.048 8.20569L19.346 12.5736C19.19 13.4706 18.605 14.1726 17.7471 14.4845L15.7191 15.1475C15.7581 14.6795 15.8361 14.2116 15.8751 13.7826C15.9531 13.0026 16.0701 12.2226 16.1481 11.4816H14.5881H12.0142C11.7022 13.3146 10.3372 14.7185 8.73827 14.7185C7.13931 14.7185 5.77434 13.2366 5.46235 11.4036H2.84941H1.28944C1.56244 13.5096 1.79643 15.6545 2.06943 17.7605C2.14742 18.5404 2.26442 19.3204 2.34242 20.1394C2.38142 20.5684 2.65441 20.9194 3.1224 20.9194H12.9502H14.3541C14.8221 20.9194 15.0951 20.5684 15.1341 20.1394C15.2511 19.0474 15.4071 17.9165 15.5241 16.8245L18.254 15.9275C19.658 15.4595 20.672 14.2505 20.906 12.8076L21.608 8.43969C21.842 6.91872 21.218 5.43676 19.97 4.57878Z" fill="white"/>
</svg>
