<svg width="220" height="102" viewBox="0 0 220 102" fill="none" xmlns="http://www.w3.org/2000/svg">
<rect x="0.349854" y="0.82373" width="218.751" height="100.741" rx="13.4321" fill="url(#paint0_linear_0_103)"/>
<rect width="71.9576" height="71.9576" rx="5.75661" transform="matrix(1 0 0 -1 13.7819 87.1731)" fill="#E30613"/>
<path d="M35.6456 59.8839H59.0316C59.2414 59.8839 59.4441 59.8105 59.6049 59.6768C59.8295 59.4887 64.9533 55.0808 65.2658 45.5659H40.1497C39.8384 54.2029 35.1196 58.2625 35.0705 58.303C34.783 58.5459 34.6773 58.9427 34.8066 59.2958C34.935 59.6479 35.2698 59.8839 35.6456 59.8839Z" fill="white"/>
<path d="M64.4008 40.1967H59.9264V39.3019C59.9264 38.8007 59.5327 38.407 59.0316 38.407C58.5304 38.407 58.1367 38.8007 58.1367 39.3019V40.1967H53.6027V39.3019C53.6027 38.8007 53.2089 38.407 52.7078 38.407C52.2067 38.407 51.8129 38.8007 51.8129 39.3019V40.1967H47.3386V39.3019C47.3386 38.8007 46.9448 38.407 46.4437 38.407C45.9426 38.407 45.5488 38.8007 45.5488 39.3019V40.1967H41.0744C40.5733 40.1967 40.1796 40.5905 40.1796 41.0916V43.7762H65.2957V41.0916C65.2957 40.5905 64.9019 40.1967 64.4008 40.1967Z" fill="white"/>
<path d="M60.7541 61.049C60.2682 61.4536 59.6583 61.6738 59.0317 61.6738H40.1797V64.3584C40.1797 64.8531 40.5799 65.2533 41.0746 65.2533H64.4009C64.8956 65.2533 65.2958 64.8531 65.2958 64.3584V54.3271C63.5705 58.56 61.1629 60.7068 60.7541 61.049Z" fill="white"/>
<defs>
<linearGradient id="paint0_linear_0_103" x1="0.349854" y1="51.6738" x2="182.4" y2="51.6738" gradientUnits="userSpaceOnUse">
<stop stop-color="#E30613" stop-opacity="0.5"/>
<stop offset="1" stop-color="#E30613" stop-opacity="0"/>
</linearGradient>
</defs>
</svg>
