<svg width="219" height="101" viewBox="0 0 219 101" fill="none" xmlns="http://www.w3.org/2000/svg">
<rect x="0.215172" y="0.214966" width="218.751" height="100.741" rx="13.4321" fill="url(#paint0_linear_0_46)"/>
<rect width="71.9576" height="71.9576" rx="5.75661" transform="matrix(1 0 0 -1 13.6472 86.5642)" fill="#E30613"/>
<path d="M61.8561 42.1436H55.2774V39.4927C55.2774 38.2304 54.2505 37.2036 52.9883 37.2036H46.2716C45.0094 37.2036 43.9825 38.2304 43.9825 39.4927V42.1436H37.4038C35.728 42.1436 34.3645 43.507 34.3645 45.1829C34.3645 46.7052 34.2086 48.0723 35.3622 49.6097C36.0149 50.4795 36.9118 51.1 37.9559 51.404L48.0954 54.3562C49.0992 54.6484 50.1604 54.6485 51.1644 54.3562L61.3039 51.404C62.348 51.1 63.2449 50.4795 63.8976 49.6097C65.0564 48.0654 64.8953 46.6842 64.8953 45.1829C64.8954 43.507 63.532 42.1436 61.8561 42.1436ZM45.9214 39.4927C45.9214 39.2996 46.0785 39.1425 46.2716 39.1425H52.9883C53.1814 39.1425 53.3385 39.2996 53.3385 39.4927V42.1436H45.9214V39.4927Z" fill="white"/>
<path d="M61.846 53.2655C50.9093 56.4497 51.0509 56.5142 49.63 56.5142C48.2192 56.5142 48.5539 56.5089 37.414 53.2655C36.2395 52.9235 35.1993 52.2931 34.3646 51.4241V60.7281C34.3646 62.404 35.728 63.7674 37.4039 63.7674H61.8561C63.532 63.7674 64.8954 62.404 64.8954 60.7281V51.4241C64.0607 52.2931 63.0205 52.9235 61.846 53.2655Z" fill="white"/>
<defs>
<linearGradient id="paint0_linear_0_46" x1="0.215172" y1="51.065" x2="182.265" y2="51.065" gradientUnits="userSpaceOnUse">
<stop stop-color="#E30613" stop-opacity="0.5"/>
<stop offset="1" stop-color="#E30613" stop-opacity="0"/>
</linearGradient>
</defs>
</svg>
