<svg width="220" height="102" viewBox="0 0 220 102" fill="none" xmlns="http://www.w3.org/2000/svg">
<rect x="0.782593" y="0.82373" width="218.751" height="100.741" rx="13.4321" fill="url(#paint0_linear_0_91)"/>
<rect width="71.9576" height="71.9576" rx="5.75661" transform="matrix(1 0 0 -1 14.2147 87.1731)" fill="#E30613"/>
<path d="M62.8932 56.81C63.1186 56.6443 63.2962 56.4221 63.4082 56.1658C63.5202 55.9095 63.5626 55.6282 63.5312 55.3503C63.4998 55.0724 63.3956 54.8077 63.2292 54.5829C63.0628 54.3581 62.84 54.1812 62.5834 54.07V51.8845L61.3057 52.4275V54.07C61.049 54.1811 60.8261 54.3581 60.6595 54.5829C60.493 54.8078 60.3888 55.0726 60.3574 55.3506C60.3259 55.6286 60.3684 55.91 60.4805 56.1664C60.5926 56.4227 60.7704 56.6449 60.9959 56.8106C60.7953 56.9579 60.6322 57.1503 60.5195 57.3722C60.4069 57.5941 60.348 57.8394 60.3475 58.0883V59.6847C60.3475 59.8542 60.4148 60.0167 60.5346 60.1365C60.6544 60.2563 60.8169 60.3236 60.9863 60.3236H62.9028C63.0722 60.3236 63.2347 60.2563 63.3545 60.1365C63.4743 60.0167 63.5417 59.8542 63.5417 59.6847V58.0876C63.5411 57.8388 63.4822 57.5935 63.3696 57.3716C63.257 57.1497 63.0938 56.9573 62.8932 56.81Z" fill="white"/>
<path d="M59.3892 53.2388V57.9662C59.3926 58.5157 59.2531 59.0568 58.9843 59.5361C58.7155 60.0155 58.3267 60.4167 57.856 60.7004C55.4133 62.127 52.6354 62.8788 49.8066 62.8788C46.9779 62.8788 44.1999 62.127 41.7573 60.7004C41.2866 60.4167 40.8977 60.0155 40.6289 59.5361C40.3601 59.0568 40.2206 58.5157 40.2241 57.9662V53.2388L48.0626 56.5543C48.6148 56.7863 49.2077 56.9057 49.8066 56.9057C50.4056 56.9057 50.9985 56.7863 51.5507 56.5543L59.3892 53.2388Z" fill="white"/>
<path d="M63.8841 46.4205L51.0511 40.9904C50.6567 40.8245 50.2332 40.739 49.8054 40.739C49.3775 40.739 48.954 40.8245 48.5596 40.9904L35.7267 46.4205C35.3798 46.5672 35.0839 46.8129 34.8758 47.1268C34.6677 47.4407 34.5568 47.809 34.5568 48.1856C34.5568 48.5622 34.6677 48.9305 34.8758 49.2444C35.0839 49.5583 35.3798 49.804 35.7267 49.9507L48.5596 55.3808C48.954 55.5469 49.3775 55.6324 49.8054 55.6324C50.2332 55.6324 50.6568 55.5469 51.0511 55.3808L63.8841 49.9507C64.2309 49.804 64.5269 49.5583 64.735 49.2444C64.943 48.9305 65.054 48.5622 65.054 48.1856C65.054 47.809 64.943 47.4407 64.735 47.1268C64.5269 46.8129 64.2309 46.5672 63.8841 46.4205Z" fill="white"/>
<defs>
<linearGradient id="paint0_linear_0_91" x1="0.782593" y1="51.6738" x2="182.833" y2="51.6738" gradientUnits="userSpaceOnUse">
<stop stop-color="#E30613" stop-opacity="0.5"/>
<stop offset="1" stop-color="#E30613" stop-opacity="0"/>
</linearGradient>
</defs>
</svg>
